<svg width="1024" height="753" viewBox="0 0 1024 753" fill="none" xmlns="http://www.w3.org/2000/svg">
<g opacity="0.2" filter="url(#filter0_f_175_1868)">
<ellipse cx="476.5" cy="224" rx="670.5" ry="350" fill="#35875D"/>
</g>
<path d="M-2.9651 460C-1.46978 460 -0.337809 460.63 0.430815 461.891C1.21341 463.138 1.60471 464.953 1.60471 467.336C1.60471 469.719 1.21341 471.541 0.430815 472.802C-0.337809 474.063 -1.46978 474.693 -2.9651 474.693C-4.44644 474.693 -5.57841 474.063 -6.36101 472.802C-7.1436 471.541 -7.5349 469.719 -7.5349 467.336C-7.5349 464.967 -7.1436 463.152 -6.36101 461.891C-5.57841 460.63 -4.44644 460 -2.9651 460ZM-6.04657 467.336C-6.04657 469.026 -5.89285 470.35 -5.5854 471.306L-0.931744 462.099C-1.42087 461.448 -2.09865 461.122 -2.9651 461.122C-3.92937 461.122 -4.68402 461.635 -5.22904 462.66C-5.77406 463.672 -6.04657 465.23 -6.04657 467.336ZM-2.9651 473.55C-1.98685 473.55 -1.22522 473.044 -0.680193 472.033C-0.135172 471.008 0.137341 469.442 0.137341 467.336C0.137341 465.549 -0.0373459 464.163 -0.386721 463.18L-5.04037 472.469C-4.53728 473.19 -3.84552 473.55 -2.9651 473.55Z" fill="url(#paint0_linear_175_1868)" fill-opacity="0.6"/>
<path d="M-1.70735 497.135H1.37412V498.236H-6.61256V497.135H-3.04895V485.455L-6.44486 487.471L-7.03181 486.536L-2.83932 483.959H-1.70735V497.135Z" fill="url(#paint1_linear_175_1868)" fill-opacity="0.6"/>
<path d="M-2.9651 507.502C-1.46978 507.502 -0.337809 508.133 0.430815 509.393C1.21341 510.64 1.60471 512.455 1.60471 514.838C1.60471 517.221 1.21341 519.043 0.430815 520.304C-0.337809 521.565 -1.46978 522.195 -2.9651 522.195C-4.44644 522.195 -5.57841 521.565 -6.36101 520.304C-7.1436 519.043 -7.5349 517.221 -7.5349 514.838C-7.5349 512.469 -7.1436 510.654 -6.36101 509.393C-5.57841 508.133 -4.44644 507.502 -2.9651 507.502ZM-6.04657 514.838C-6.04657 516.529 -5.89285 517.852 -5.5854 518.808L-0.931744 509.601C-1.42087 508.95 -2.09865 508.624 -2.9651 508.624C-3.92937 508.624 -4.68402 509.137 -5.22904 510.162C-5.77406 511.174 -6.04657 512.732 -6.04657 514.838ZM-2.9651 521.052C-1.98685 521.052 -1.22522 520.546 -0.680193 519.535C-0.135172 518.51 0.137341 516.944 0.137341 514.838C0.137341 513.051 -0.0373459 511.665 -0.386721 510.682L-5.04037 519.971C-4.53728 520.692 -3.84552 521.052 -2.9651 521.052Z" fill="url(#paint2_linear_175_1868)" fill-opacity="0.6"/>
<path d="M-1.70735 544.637H1.37412V545.738H-6.61256V544.637H-3.04895V532.957L-6.44486 534.973L-7.03181 534.038L-2.83932 531.461H-1.70735V544.637Z" fill="url(#paint3_linear_175_1868)" fill-opacity="0.6"/>
<path d="M-1.70735 568.388H1.37412V569.489H-6.61256V568.388H-3.04895V556.708L-6.44486 558.724L-7.03181 557.789L-2.83932 555.212H-1.70735V568.388Z" fill="url(#paint4_linear_175_1868)" fill-opacity="0.6"/>
<path d="M-2.9651 578.755C-1.46978 578.755 -0.337809 579.386 0.430815 580.646C1.21341 581.893 1.60471 583.708 1.60471 586.091C1.60471 588.474 1.21341 590.296 0.430815 591.557C-0.337809 592.818 -1.46978 593.448 -2.9651 593.448C-4.44644 593.448 -5.57841 592.818 -6.36101 591.557C-7.1436 590.296 -7.5349 588.474 -7.5349 586.091C-7.5349 583.722 -7.1436 581.907 -6.36101 580.646C-5.57841 579.386 -4.44644 578.755 -2.9651 578.755ZM-6.04657 586.091C-6.04657 587.782 -5.89285 589.105 -5.5854 590.061L-0.931744 580.854C-1.42087 580.203 -2.09865 579.878 -2.9651 579.878C-3.92937 579.878 -4.68402 580.39 -5.22904 581.415C-5.77406 582.427 -6.04657 583.985 -6.04657 586.091ZM-2.9651 592.305C-1.98685 592.305 -1.22522 591.8 -0.680193 590.788C-0.135172 589.763 0.137341 588.197 0.137341 586.091C0.137341 584.304 -0.0373459 582.919 -0.386721 581.935L-5.04037 591.225C-4.53728 591.945 -3.84552 592.305 -2.9651 592.305Z" fill="url(#paint5_linear_175_1868)" fill-opacity="0.6"/>
<path d="M-1.70735 615.89H1.37412V616.992H-6.61256V615.89H-3.04895V604.21L-6.44486 606.226L-7.03181 605.291L-2.83932 602.714H-1.70735V615.89Z" fill="url(#paint6_linear_175_1868)" fill-opacity="0.6"/>
<path d="M-2.9651 626.257C-1.46978 626.257 -0.337809 626.888 0.430815 628.149C1.21341 629.396 1.60471 631.211 1.60471 633.594C1.60471 635.977 1.21341 637.798 0.430815 639.059C-0.337809 640.32 -1.46978 640.95 -2.9651 640.95C-4.44644 640.95 -5.57841 640.32 -6.36101 639.059C-7.1436 637.798 -7.5349 635.977 -7.5349 633.594C-7.5349 631.224 -7.1436 629.409 -6.36101 628.149C-5.57841 626.888 -4.44644 626.257 -2.9651 626.257ZM-6.04657 633.594C-6.04657 635.284 -5.89285 636.607 -5.5854 637.563L-0.931744 628.356C-1.42087 627.705 -2.09865 627.38 -2.9651 627.38C-3.92937 627.38 -4.68402 627.892 -5.22904 628.918C-5.77406 629.929 -6.04657 631.488 -6.04657 633.594ZM-2.9651 639.807C-1.98685 639.807 -1.22522 639.302 -0.680193 638.29C-0.135172 637.265 0.137341 635.699 0.137341 633.594C0.137341 631.806 -0.0373459 630.421 -0.386721 629.437L-5.04037 638.727C-4.53728 639.447 -3.84552 639.807 -2.9651 639.807Z" fill="url(#paint7_linear_175_1868)" fill-opacity="0.6"/>
<path d="M-2.9651 650.008C-1.46978 650.008 -0.337809 650.639 0.430815 651.9C1.21341 653.147 1.60471 654.962 1.60471 657.345C1.60471 659.728 1.21341 661.549 0.430815 662.81C-0.337809 664.071 -1.46978 664.701 -2.9651 664.701C-4.44644 664.701 -5.57841 664.071 -6.36101 662.81C-7.1436 661.549 -7.5349 659.728 -7.5349 657.345C-7.5349 654.975 -7.1436 653.16 -6.36101 651.9C-5.57841 650.639 -4.44644 650.008 -2.9651 650.008ZM-6.04657 657.345C-6.04657 659.035 -5.89285 660.358 -5.5854 661.314L-0.931744 652.107C-1.42087 651.456 -2.09865 651.131 -2.9651 651.131C-3.92937 651.131 -4.68402 651.643 -5.22904 652.669C-5.77406 653.68 -6.04657 655.239 -6.04657 657.345ZM-2.9651 663.558C-1.98685 663.558 -1.22522 663.053 -0.680193 662.041C-0.135172 661.016 0.137341 659.451 0.137341 657.345C0.137341 655.557 -0.0373459 654.172 -0.386721 653.188L-5.04037 662.478C-4.53728 663.198 -3.84552 663.558 -2.9651 663.558Z" fill="url(#paint8_linear_175_1868)" fill-opacity="0.6"/>
<path d="M-1.70735 687.143H1.37412V688.245H-6.61256V687.143H-3.04895V675.464L-6.44486 677.48L-7.03181 676.544L-2.83932 673.967H-1.70735V687.143Z" fill="url(#paint9_linear_175_1868)" fill-opacity="0.6"/>
<path d="M-2.9651 697.511C-1.46978 697.511 -0.337809 698.141 0.430815 699.402C1.21341 700.649 1.60471 702.464 1.60471 704.847C1.60471 707.23 1.21341 709.052 0.430815 710.312C-0.337809 711.573 -1.46978 712.204 -2.9651 712.204C-4.44644 712.204 -5.57841 711.573 -6.36101 710.312C-7.1436 709.052 -7.5349 707.23 -7.5349 704.847C-7.5349 702.478 -7.1436 700.663 -6.36101 699.402C-5.57841 698.141 -4.44644 697.511 -2.9651 697.511ZM-6.04657 704.847C-6.04657 706.537 -5.89285 707.86 -5.5854 708.816L-0.931744 699.61C-1.42087 698.958 -2.09865 698.633 -2.9651 698.633C-3.92937 698.633 -4.68402 699.145 -5.22904 700.171C-5.77406 701.182 -6.04657 702.741 -6.04657 704.847ZM-2.9651 711.061C-1.98685 711.061 -1.22522 710.555 -0.680193 709.543C-0.135172 708.518 0.137341 706.953 0.137341 704.847C0.137341 703.059 -0.0373459 701.674 -0.386721 700.69L-5.04037 709.98C-4.53728 710.7 -3.84552 711.061 -2.9651 711.061Z" fill="url(#paint10_linear_175_1868)" fill-opacity="0.6"/>
<path d="M-1.70735 734.645H1.37412V735.747H-6.61256V734.645H-3.04895V722.966L-6.44486 724.982L-7.03181 724.046L-2.83932 721.469H-1.70735V734.645Z" fill="url(#paint11_linear_175_1868)" fill-opacity="0.6"/>
<path d="M-1.70735 758.396H1.37412V759.498H-6.61256V758.396H-3.04895V746.717L-6.44486 748.733L-7.03181 747.798L-2.83932 745.221H-1.70735V758.396Z" fill="url(#paint12_linear_175_1868)" fill-opacity="0.6"/>
<path d="M35.9651 507.502C37.4604 507.502 38.5924 508.133 39.361 509.393C40.1436 510.64 40.5349 512.455 40.5349 514.838C40.5349 517.221 40.1436 519.043 39.361 520.304C38.5924 521.565 37.4604 522.195 35.9651 522.195C34.4838 522.195 33.3518 521.565 32.5692 520.304C31.7866 519.043 31.3953 517.221 31.3953 514.838C31.3953 512.469 31.7866 510.654 32.5692 509.393C33.3518 508.133 34.4838 507.502 35.9651 507.502ZM32.8836 514.838C32.8836 516.529 33.0374 517.852 33.3448 518.808L37.9985 509.601C37.5093 508.95 36.8315 508.624 35.9651 508.624C35.0008 508.624 34.2462 509.137 33.7012 510.162C33.1561 511.174 32.8836 512.732 32.8836 514.838ZM35.9651 521.052C36.9433 521.052 37.705 520.546 38.25 519.535C38.795 518.51 39.0675 516.944 39.0675 514.838C39.0675 513.051 38.8928 511.665 38.5435 510.682L33.8898 519.971C34.3929 520.692 35.0847 521.052 35.9651 521.052Z" fill="url(#paint13_linear_175_1868)" fill-opacity="0.6"/>
<path d="M37.2228 544.637H40.3043V545.738H32.3176V544.637H35.8812V532.957L32.4853 534.973L31.8984 534.038L36.0909 531.461H37.2228V544.637Z" fill="url(#paint14_linear_175_1868)" fill-opacity="0.6"/>
<path d="M35.9651 555.004C37.4604 555.004 38.5924 555.635 39.361 556.895C40.1436 558.142 40.5349 559.957 40.5349 562.34C40.5349 564.723 40.1436 566.545 39.361 567.806C38.5924 569.067 37.4604 569.697 35.9651 569.697C34.4838 569.697 33.3518 569.067 32.5692 567.806C31.7866 566.545 31.3953 564.723 31.3953 562.34C31.3953 559.971 31.7866 558.156 32.5692 556.895C33.3518 555.635 34.4838 555.004 35.9651 555.004ZM32.8836 562.34C32.8836 564.031 33.0374 565.354 33.3448 566.31L37.9985 557.103C37.5093 556.452 36.8315 556.126 35.9651 556.126C35.0008 556.126 34.2462 556.639 33.7012 557.664C33.1561 558.676 32.8836 560.234 32.8836 562.34ZM35.9651 568.554C36.9433 568.554 37.705 568.049 38.25 567.037C38.795 566.012 39.0675 564.446 39.0675 562.34C39.0675 560.553 38.8928 559.168 38.5435 558.184L33.8898 567.474C34.3929 568.194 35.0847 568.554 35.9651 568.554Z" fill="url(#paint15_linear_175_1868)" fill-opacity="0.6"/>
<path d="M35.9651 578.755C37.4604 578.755 38.5924 579.386 39.361 580.646C40.1436 581.893 40.5349 583.708 40.5349 586.091C40.5349 588.474 40.1436 590.296 39.361 591.557C38.5924 592.818 37.4604 593.448 35.9651 593.448C34.4838 593.448 33.3518 592.818 32.5692 591.557C31.7866 590.296 31.3953 588.474 31.3953 586.091C31.3953 583.722 31.7866 581.907 32.5692 580.646C33.3518 579.386 34.4838 578.755 35.9651 578.755ZM32.8836 586.091C32.8836 587.782 33.0374 589.105 33.3448 590.061L37.9985 580.854C37.5093 580.203 36.8315 579.878 35.9651 579.878C35.0008 579.878 34.2462 580.39 33.7012 581.415C33.1561 582.427 32.8836 583.985 32.8836 586.091ZM35.9651 592.305C36.9433 592.305 37.705 591.8 38.25 590.788C38.795 589.763 39.0675 588.197 39.0675 586.091C39.0675 584.304 38.8928 582.919 38.5435 581.935L33.8898 591.225C34.3929 591.945 35.0847 592.305 35.9651 592.305Z" fill="url(#paint16_linear_175_1868)" fill-opacity="0.6"/>
<path d="M37.2228 615.89H40.3043V616.992H32.3176V615.89H35.8812V604.21L32.4853 606.226L31.8984 605.291L36.0909 602.714H37.2228V615.89Z" fill="url(#paint17_linear_175_1868)" fill-opacity="0.6"/>
<path d="M35.9651 626.257C37.4604 626.257 38.5924 626.888 39.361 628.149C40.1436 629.396 40.5349 631.211 40.5349 633.594C40.5349 635.977 40.1436 637.798 39.361 639.059C38.5924 640.32 37.4604 640.95 35.9651 640.95C34.4838 640.95 33.3518 640.32 32.5692 639.059C31.7866 637.798 31.3953 635.977 31.3953 633.594C31.3953 631.224 31.7866 629.409 32.5692 628.149C33.3518 626.888 34.4838 626.257 35.9651 626.257ZM32.8836 633.594C32.8836 635.284 33.0374 636.607 33.3448 637.563L37.9985 628.356C37.5093 627.705 36.8315 627.38 35.9651 627.38C35.0008 627.38 34.2462 627.892 33.7012 628.918C33.1561 629.929 32.8836 631.488 32.8836 633.594ZM35.9651 639.807C36.9433 639.807 37.705 639.302 38.25 638.29C38.795 637.265 39.0675 635.699 39.0675 633.594C39.0675 631.806 38.8928 630.421 38.5435 629.437L33.8898 638.727C34.3929 639.447 35.0847 639.807 35.9651 639.807Z" fill="url(#paint18_linear_175_1868)" fill-opacity="0.6"/>
<path d="M37.2228 663.392H40.3043V664.494H32.3176V663.392H35.8812V651.713L32.4853 653.728L31.8984 652.793L36.0909 650.216H37.2228V663.392Z" fill="url(#paint19_linear_175_1868)" fill-opacity="0.6"/>
<path d="M35.9651 673.76C37.4604 673.76 38.5924 674.39 39.361 675.651C40.1436 676.898 40.5349 678.713 40.5349 681.096C40.5349 683.479 40.1436 685.301 39.361 686.561C38.5924 687.822 37.4604 688.453 35.9651 688.453C34.4838 688.453 33.3518 687.822 32.5692 686.561C31.7866 685.301 31.3953 683.479 31.3953 681.096C31.3953 678.726 31.7866 676.911 32.5692 675.651C33.3518 674.39 34.4838 673.76 35.9651 673.76ZM32.8836 681.096C32.8836 682.786 33.0374 684.109 33.3448 685.065L37.9985 675.859C37.5093 675.207 36.8315 674.882 35.9651 674.882C35.0008 674.882 34.2462 675.394 33.7012 676.42C33.1561 677.431 32.8836 678.99 32.8836 681.096ZM35.9651 687.31C36.9433 687.31 37.705 686.804 38.25 685.792C38.795 684.767 39.0675 683.202 39.0675 681.096C39.0675 679.308 38.8928 677.923 38.5435 676.939L33.8898 686.229C34.3929 686.949 35.0847 687.31 35.9651 687.31Z" fill="url(#paint20_linear_175_1868)" fill-opacity="0.6"/>
<path d="M35.9651 697.511C37.4604 697.511 38.5924 698.141 39.361 699.402C40.1436 700.649 40.5349 702.464 40.5349 704.847C40.5349 707.23 40.1436 709.052 39.361 710.312C38.5924 711.573 37.4604 712.204 35.9651 712.204C34.4838 712.204 33.3518 711.573 32.5692 710.312C31.7866 709.052 31.3953 707.23 31.3953 704.847C31.3953 702.478 31.7866 700.663 32.5692 699.402C33.3518 698.141 34.4838 697.511 35.9651 697.511ZM32.8836 704.847C32.8836 706.537 33.0374 707.86 33.3448 708.816L37.9985 699.61C37.5093 698.958 36.8315 698.633 35.9651 698.633C35.0008 698.633 34.2462 699.145 33.7012 700.171C33.1561 701.182 32.8836 702.741 32.8836 704.847ZM35.9651 711.061C36.9433 711.061 37.705 710.555 38.25 709.543C38.795 708.518 39.0675 706.953 39.0675 704.847C39.0675 703.059 38.8928 701.674 38.5435 700.69L33.8898 709.98C34.3929 710.7 35.0847 711.061 35.9651 711.061Z" fill="url(#paint21_linear_175_1868)" fill-opacity="0.6"/>
<path d="M37.2228 734.645H40.3043V735.747H32.3176V734.645H35.8812V722.966L32.4853 724.982L31.8984 724.046L36.0909 721.469H37.2228V734.645Z" fill="url(#paint22_linear_175_1868)" fill-opacity="0.6"/>
<path d="M35.9651 745.013C37.4604 745.013 38.5924 745.643 39.361 746.904C40.1436 748.151 40.5349 749.966 40.5349 752.349C40.5349 754.732 40.1436 756.554 39.361 757.815C38.5924 759.075 37.4604 759.706 35.9651 759.706C34.4838 759.706 33.3518 759.075 32.5692 757.815C31.7866 756.554 31.3953 754.732 31.3953 752.349C31.3953 749.98 31.7866 748.165 32.5692 746.904C33.3518 745.643 34.4838 745.013 35.9651 745.013ZM32.8836 752.349C32.8836 754.039 33.0374 755.362 33.3448 756.318L37.9985 747.112C37.5093 746.461 36.8315 746.135 35.9651 746.135C35.0008 746.135 34.2462 746.648 33.7012 747.673C33.1561 748.684 32.8836 750.243 32.8836 752.349ZM35.9651 758.563C36.9433 758.563 37.705 758.057 38.25 757.046C38.795 756.02 39.0675 754.455 39.0675 752.349C39.0675 750.562 38.8928 749.176 38.5435 748.192L33.8898 757.482C34.3929 758.202 35.0847 758.563 35.9651 758.563Z" fill="url(#paint23_linear_175_1868)" fill-opacity="0.6"/>
<path d="M37.2228 782.147H40.3043V783.249H32.3176V782.147H35.8812V770.468L32.4853 772.484L31.8984 771.549L36.0909 768.972H37.2228V782.147Z" fill="url(#paint24_linear_175_1868)" fill-opacity="0.6"/>
<path d="M37.2228 805.899H40.3043V807H32.3176V805.899H35.8812V794.219L32.4853 796.235L31.8984 795.3L36.0909 792.723H37.2228V805.899Z" fill="url(#paint25_linear_175_1868)" fill-opacity="0.6"/>
<path d="M-22.4302 531.253C-20.9349 531.253 -19.8029 531.884 -19.0343 533.144C-18.2517 534.391 -17.8604 536.206 -17.8604 538.589C-17.8604 540.972 -18.2517 542.794 -19.0343 544.055C-19.8029 545.316 -20.9349 545.946 -22.4302 545.946C-23.9115 545.946 -25.0435 545.316 -25.8261 544.055C-26.6087 542.794 -27 540.972 -27 538.589C-27 536.22 -26.6087 534.405 -25.8261 533.144C-25.0435 531.884 -23.9115 531.253 -22.4302 531.253ZM-25.5117 538.589C-25.5117 540.28 -25.3579 541.603 -25.0505 542.559L-20.3968 533.352C-20.886 532.701 -21.5637 532.375 -22.4302 532.375C-23.3945 532.375 -24.1491 532.888 -24.6941 533.913C-25.2392 534.925 -25.5117 536.483 -25.5117 538.589ZM-22.4302 544.803C-21.4519 544.803 -20.6903 544.297 -20.1453 543.286C-19.6003 542.261 -19.3278 540.695 -19.3278 538.589C-19.3278 536.802 -19.5024 535.417 -19.8518 534.433L-24.5055 543.722C-24.0024 544.443 -23.3106 544.803 -22.4302 544.803Z" fill="url(#paint26_linear_175_1868)" fill-opacity="0.6"/>
<path d="M-22.4302 555.004C-20.9349 555.004 -19.8029 555.635 -19.0343 556.895C-18.2517 558.142 -17.8604 559.957 -17.8604 562.34C-17.8604 564.723 -18.2517 566.545 -19.0343 567.806C-19.8029 569.067 -20.9349 569.697 -22.4302 569.697C-23.9115 569.697 -25.0435 569.067 -25.8261 567.806C-26.6087 566.545 -27 564.723 -27 562.34C-27 559.971 -26.6087 558.156 -25.8261 556.895C-25.0435 555.635 -23.9115 555.004 -22.4302 555.004ZM-25.5117 562.34C-25.5117 564.031 -25.3579 565.354 -25.0505 566.31L-20.3968 557.103C-20.886 556.452 -21.5637 556.126 -22.4302 556.126C-23.3945 556.126 -24.1491 556.639 -24.6941 557.664C-25.2392 558.676 -25.5117 560.234 -25.5117 562.34ZM-22.4302 568.554C-21.4519 568.554 -20.6903 568.049 -20.1453 567.037C-19.6003 566.012 -19.3278 564.446 -19.3278 562.34C-19.3278 560.553 -19.5024 559.168 -19.8518 558.184L-24.5055 567.474C-24.0024 568.194 -23.3106 568.554 -22.4302 568.554Z" fill="url(#paint27_linear_175_1868)" fill-opacity="0.6"/>
<path d="M-21.1724 592.139H-18.091V593.24H-26.0777V592.139H-22.514V580.459L-25.91 582.475L-26.4969 581.54L-22.3044 578.963H-21.1724V592.139Z" fill="url(#paint28_linear_175_1868)" fill-opacity="0.6"/>
<path d="M-22.4302 602.506C-20.9349 602.506 -19.8029 603.137 -19.0343 604.398C-18.2517 605.644 -17.8604 607.459 -17.8604 609.842C-17.8604 612.225 -18.2517 614.047 -19.0343 615.308C-19.8029 616.569 -20.9349 617.199 -22.4302 617.199C-23.9115 617.199 -25.0435 616.569 -25.8261 615.308C-26.6087 614.047 -27 612.225 -27 609.842C-27 607.473 -26.6087 605.658 -25.8261 604.398C-25.0435 603.137 -23.9115 602.506 -22.4302 602.506ZM-25.5117 609.842C-25.5117 611.533 -25.3579 612.856 -25.0505 613.812L-20.3968 604.605C-20.886 603.954 -21.5637 603.629 -22.4302 603.629C-23.3945 603.629 -24.1491 604.141 -24.6941 605.166C-25.2392 606.178 -25.5117 607.737 -25.5117 609.842ZM-22.4302 616.056C-21.4519 616.056 -20.6903 615.551 -20.1453 614.539C-19.6003 613.514 -19.3278 611.948 -19.3278 609.842C-19.3278 608.055 -19.5024 606.67 -19.8518 605.686L-24.5055 614.976C-24.0024 615.696 -23.3106 616.056 -22.4302 616.056Z" fill="url(#paint29_linear_175_1868)" fill-opacity="0.6"/>
<path d="M-21.1724 639.641H-18.091V640.743H-26.0777V639.641H-22.514V627.962L-25.91 629.977L-26.4969 629.042L-22.3044 626.465H-21.1724V639.641Z" fill="url(#paint30_linear_175_1868)" fill-opacity="0.6"/>
<path d="M-21.1724 663.392H-18.091V664.494H-26.0777V663.392H-22.514V651.713L-25.91 653.728L-26.4969 652.793L-22.3044 650.216H-21.1724V663.392Z" fill="url(#paint31_linear_175_1868)" fill-opacity="0.6"/>
<path d="M17.7577 497.135H20.8392V498.236H12.8525V497.135H16.4162V485.455L13.0202 487.471L12.4333 486.536L16.6258 483.959H17.7577V497.135Z" fill="url(#paint32_linear_175_1868)" fill-opacity="0.6"/>
<path d="M16.5 507.502C17.9953 507.502 19.1273 508.133 19.8959 509.393C20.6785 510.64 21.0698 512.455 21.0698 514.838C21.0698 517.221 20.6785 519.043 19.8959 520.304C19.1273 521.565 17.9953 522.195 16.5 522.195C15.0187 522.195 13.8867 521.565 13.1041 520.304C12.3215 519.043 11.9302 517.221 11.9302 514.838C11.9302 512.469 12.3215 510.654 13.1041 509.393C13.8867 508.133 15.0187 507.502 16.5 507.502ZM13.4185 514.838C13.4185 516.529 13.5723 517.852 13.8797 518.808L18.5334 509.601C18.0442 508.95 17.3664 508.624 16.5 508.624C15.5357 508.624 14.7811 509.137 14.2361 510.162C13.691 511.174 13.4185 512.732 13.4185 514.838ZM16.5 521.052C17.4782 521.052 18.2399 520.546 18.7849 519.535C19.3299 518.51 19.6024 516.944 19.6024 514.838C19.6024 513.051 19.4277 511.665 19.0784 510.682L14.4247 519.971C14.9278 520.692 15.6196 521.052 16.5 521.052Z" fill="url(#paint33_linear_175_1868)" fill-opacity="0.6"/>
<path d="M17.7577 544.637H20.8392V545.738H12.8525V544.637H16.4162V532.957L13.0202 534.973L12.4333 534.038L16.6258 531.461H17.7577V544.637Z" fill="url(#paint34_linear_175_1868)" fill-opacity="0.6"/>
<path d="M17.7577 568.388H20.8392V569.489H12.8525V568.388H16.4162V556.708L13.0202 558.724L12.4333 557.789L16.6258 555.212H17.7577V568.388Z" fill="url(#paint35_linear_175_1868)" fill-opacity="0.6"/>
<path d="M16.5 578.755C17.9953 578.755 19.1273 579.386 19.8959 580.646C20.6785 581.893 21.0698 583.708 21.0698 586.091C21.0698 588.474 20.6785 590.296 19.8959 591.557C19.1273 592.818 17.9953 593.448 16.5 593.448C15.0187 593.448 13.8867 592.818 13.1041 591.557C12.3215 590.296 11.9302 588.474 11.9302 586.091C11.9302 583.722 12.3215 581.907 13.1041 580.646C13.8867 579.386 15.0187 578.755 16.5 578.755ZM13.4185 586.091C13.4185 587.782 13.5723 589.105 13.8797 590.061L18.5334 580.854C18.0442 580.203 17.3664 579.878 16.5 579.878C15.5357 579.878 14.7811 580.39 14.2361 581.415C13.691 582.427 13.4185 583.985 13.4185 586.091ZM16.5 592.305C17.4782 592.305 18.2399 591.8 18.7849 590.788C19.3299 589.763 19.6024 588.197 19.6024 586.091C19.6024 584.304 19.4277 582.919 19.0784 581.935L14.4247 591.225C14.9278 591.945 15.6196 592.305 16.5 592.305Z" fill="url(#paint36_linear_175_1868)" fill-opacity="0.6"/>
<path d="M17.7577 615.89H20.8392V616.992H12.8525V615.89H16.4162V604.21L13.0202 606.226L12.4333 605.291L16.6258 602.714H17.7577V615.89Z" fill="url(#paint37_linear_175_1868)" fill-opacity="0.6"/>
<path d="M17.7577 639.641H20.8392V640.743H12.8525V639.641H16.4162V627.962L13.0202 629.977L12.4333 629.042L16.6258 626.465H17.7577V639.641Z" fill="url(#paint38_linear_175_1868)" fill-opacity="0.6"/>
<path d="M16.5 650.008C17.9953 650.008 19.1273 650.639 19.8959 651.9C20.6785 653.147 21.0698 654.962 21.0698 657.345C21.0698 659.728 20.6785 661.549 19.8959 662.81C19.1273 664.071 17.9953 664.701 16.5 664.701C15.0187 664.701 13.8867 664.071 13.1041 662.81C12.3215 661.549 11.9302 659.728 11.9302 657.345C11.9302 654.975 12.3215 653.16 13.1041 651.9C13.8867 650.639 15.0187 650.008 16.5 650.008ZM13.4185 657.345C13.4185 659.035 13.5723 660.358 13.8797 661.314L18.5334 652.107C18.0442 651.456 17.3664 651.131 16.5 651.131C15.5357 651.131 14.7811 651.643 14.2361 652.669C13.691 653.68 13.4185 655.239 13.4185 657.345ZM16.5 663.558C17.4782 663.558 18.2399 663.053 18.7849 662.041C19.3299 661.016 19.6024 659.451 19.6024 657.345C19.6024 655.557 19.4277 654.172 19.0784 653.188L14.4247 662.478C14.9278 663.198 15.6196 663.558 16.5 663.558Z" fill="url(#paint39_linear_175_1868)" fill-opacity="0.6"/>
<path d="M17.7577 687.143H20.8392V688.245H12.8525V687.143H16.4162V675.464L13.0202 677.48L12.4333 676.544L16.6258 673.967H17.7577V687.143Z" fill="url(#paint40_linear_175_1868)" fill-opacity="0.6"/>
<path d="M16.5 697.511C17.9953 697.511 19.1273 698.141 19.8959 699.402C20.6785 700.649 21.0698 702.464 21.0698 704.847C21.0698 707.23 20.6785 709.052 19.8959 710.312C19.1273 711.573 17.9953 712.204 16.5 712.204C15.0187 712.204 13.8867 711.573 13.1041 710.312C12.3215 709.052 11.9302 707.23 11.9302 704.847C11.9302 702.478 12.3215 700.663 13.1041 699.402C13.8867 698.141 15.0187 697.511 16.5 697.511ZM13.4185 704.847C13.4185 706.537 13.5723 707.86 13.8797 708.816L18.5334 699.61C18.0442 698.958 17.3664 698.633 16.5 698.633C15.5357 698.633 14.7811 699.145 14.2361 700.171C13.691 701.182 13.4185 702.741 13.4185 704.847ZM16.5 711.061C17.4782 711.061 18.2399 710.555 18.7849 709.543C19.3299 708.518 19.6024 706.953 19.6024 704.847C19.6024 703.059 19.4277 701.674 19.0784 700.69L14.4247 709.98C14.9278 710.7 15.6196 711.061 16.5 711.061Z" fill="url(#paint41_linear_175_1868)" fill-opacity="0.6"/>
<path d="M55.4302 483.751C56.9255 483.751 58.0575 484.381 58.8261 485.642C59.6087 486.889 60 488.704 60 491.087C60 493.47 59.6087 495.292 58.8261 496.553C58.0575 497.814 56.9255 498.444 55.4302 498.444C53.9489 498.444 52.8169 497.814 52.0343 496.553C51.2517 495.292 50.8604 493.47 50.8604 491.087C50.8604 488.718 51.2517 486.903 52.0343 485.642C52.8169 484.381 53.9489 483.751 55.4302 483.751ZM52.3487 491.087C52.3487 492.777 52.5024 494.101 52.8099 495.057L57.4636 485.85C56.9744 485.199 56.2966 484.873 55.4302 484.873C54.4659 484.873 53.7113 485.386 53.1663 486.411C52.6212 487.423 52.3487 488.981 52.3487 491.087ZM55.4302 497.301C56.4084 497.301 57.1701 496.795 57.7151 495.784C58.2601 494.759 58.5326 493.193 58.5326 491.087C58.5326 489.3 58.3579 487.914 58.0086 486.931L53.3549 496.22C53.858 496.941 54.5498 497.301 55.4302 497.301Z" fill="url(#paint42_linear_175_1868)" fill-opacity="0.6"/>
<path d="M56.6879 520.886H59.7694V521.987H51.7827V520.886H55.3463V509.206L51.9504 511.222L51.3635 510.287L55.556 507.71H56.6879V520.886Z" fill="url(#paint43_linear_175_1868)" fill-opacity="0.6"/>
<path d="M56.6879 544.637H59.7694V545.738H51.7827V544.637H55.3463V532.957L51.9504 534.973L51.3635 534.038L55.556 531.461H56.6879V544.637Z" fill="url(#paint44_linear_175_1868)" fill-opacity="0.6"/>
<path d="M55.4302 555.004C56.9255 555.004 58.0575 555.635 58.8261 556.895C59.6087 558.142 60 559.957 60 562.34C60 564.723 59.6087 566.545 58.8261 567.806C58.0575 569.067 56.9255 569.697 55.4302 569.697C53.9489 569.697 52.8169 569.067 52.0343 567.806C51.2517 566.545 50.8604 564.723 50.8604 562.34C50.8604 559.971 51.2517 558.156 52.0343 556.895C52.8169 555.635 53.9489 555.004 55.4302 555.004ZM52.3487 562.34C52.3487 564.031 52.5024 565.354 52.8099 566.31L57.4636 557.103C56.9744 556.452 56.2966 556.126 55.4302 556.126C54.4659 556.126 53.7113 556.639 53.1663 557.664C52.6212 558.676 52.3487 560.234 52.3487 562.34ZM55.4302 568.554C56.4084 568.554 57.1701 568.049 57.7151 567.037C58.2601 566.012 58.5326 564.446 58.5326 562.34C58.5326 560.553 58.3579 559.168 58.0086 558.184L53.3549 567.474C53.858 568.194 54.5498 568.554 55.4302 568.554Z" fill="url(#paint45_linear_175_1868)" fill-opacity="0.6"/>
<path d="M55.4302 578.755C56.9255 578.755 58.0575 579.386 58.8261 580.646C59.6087 581.893 60 583.708 60 586.091C60 588.474 59.6087 590.296 58.8261 591.557C58.0575 592.818 56.9255 593.448 55.4302 593.448C53.9489 593.448 52.8169 592.818 52.0343 591.557C51.2517 590.296 50.8604 588.474 50.8604 586.091C50.8604 583.722 51.2517 581.907 52.0343 580.646C52.8169 579.386 53.9489 578.755 55.4302 578.755ZM52.3487 586.091C52.3487 587.782 52.5024 589.105 52.8099 590.061L57.4636 580.854C56.9744 580.203 56.2966 579.878 55.4302 579.878C54.4659 579.878 53.7113 580.39 53.1663 581.415C52.6212 582.427 52.3487 583.985 52.3487 586.091ZM55.4302 592.305C56.4084 592.305 57.1701 591.8 57.7151 590.788C58.2601 589.763 58.5326 588.197 58.5326 586.091C58.5326 584.304 58.3579 582.919 58.0086 581.935L53.3549 591.225C53.858 591.945 54.5498 592.305 55.4302 592.305Z" fill="url(#paint46_linear_175_1868)" fill-opacity="0.6"/>
<g opacity="0.6">
<path d="M883.93 160C885.356 160 886.436 160.605 887.17 161.815C887.916 163.011 888.29 164.753 888.29 167.04C888.29 169.327 887.916 171.075 887.17 172.285C886.436 173.495 885.356 174.1 883.93 174.1C882.517 174.1 881.437 173.495 880.69 172.285C879.943 171.075 879.57 169.327 879.57 167.04C879.57 164.767 879.943 163.025 880.69 161.815C881.437 160.605 882.517 160 883.93 160ZM880.99 167.04C880.99 168.662 881.137 169.932 881.43 170.849L885.87 162.014C885.403 161.389 884.756 161.077 883.93 161.077C883.01 161.077 882.29 161.569 881.77 162.553C881.25 163.523 880.99 165.019 880.99 167.04ZM883.93 173.003C884.863 173.003 885.59 172.518 886.11 171.547C886.63 170.564 886.89 169.061 886.89 167.04C886.89 165.325 886.723 163.995 886.39 163.051L881.95 171.966C882.43 172.658 883.09 173.003 883.93 173.003Z" fill="url(#paint47_linear_175_1868)"/>
<path d="M885.13 195.637H888.07V196.694H880.45V195.637H883.85V184.428L880.61 186.363L880.05 185.465L884.05 182.992H885.13V195.637Z" fill="url(#paint48_linear_175_1868)"/>
<path d="M883.93 205.586C885.356 205.586 886.436 206.191 887.17 207.4C887.916 208.597 888.29 210.339 888.29 212.626C888.29 214.913 887.916 216.661 887.17 217.871C886.436 219.081 885.356 219.686 883.93 219.686C882.517 219.686 881.437 219.081 880.69 217.871C879.943 216.661 879.57 214.913 879.57 212.626C879.57 210.352 879.943 208.61 880.69 207.4C881.437 206.191 882.517 205.586 883.93 205.586ZM880.99 212.626C880.99 214.248 881.137 215.518 881.43 216.435L885.87 207.6C885.403 206.975 884.756 206.663 883.93 206.663C883.01 206.663 882.29 207.155 881.77 208.138C881.25 209.109 880.99 210.605 880.99 212.626ZM883.93 218.589C884.863 218.589 885.59 218.104 886.11 217.133C886.63 216.149 886.89 214.647 886.89 212.626C886.89 210.911 886.723 209.581 886.39 208.637L881.95 217.552C882.43 218.243 883.09 218.589 883.93 218.589Z" fill="url(#paint49_linear_175_1868)"/>
<path d="M885.13 241.222H888.07V242.279H880.45V241.222H883.85V230.014L880.61 231.948L880.05 231.051L884.05 228.578H885.13V241.222Z" fill="url(#paint50_linear_175_1868)"/>
<path d="M885.13 264.015H888.07V265.072H880.45V264.015H883.85V252.807L880.61 254.741L880.05 253.844L884.05 251.371H885.13V264.015Z" fill="url(#paint51_linear_175_1868)"/>
<path d="M883.93 273.964C885.356 273.964 886.436 274.569 887.17 275.779C887.916 276.976 888.29 278.717 888.29 281.004C888.29 283.291 887.916 285.039 887.17 286.249C886.436 287.459 885.356 288.064 883.93 288.064C882.517 288.064 881.437 287.459 880.69 286.249C879.943 285.039 879.57 283.291 879.57 281.004C879.57 278.731 879.943 276.989 880.69 275.779C881.437 274.569 882.517 273.964 883.93 273.964ZM880.99 281.004C880.99 282.626 881.137 283.896 881.43 284.813L885.87 275.978C885.403 275.353 884.756 275.041 883.93 275.041C883.01 275.041 882.29 275.533 881.77 276.517C881.25 277.487 880.99 278.983 880.99 281.004ZM883.93 286.967C884.863 286.967 885.59 286.482 886.11 285.511C886.63 284.528 886.89 283.025 886.89 281.004C886.89 279.289 886.723 277.959 886.39 277.015L881.95 285.93C882.43 286.622 883.09 286.967 883.93 286.967Z" fill="url(#paint52_linear_175_1868)"/>
<path d="M885.13 309.601H888.07V310.658H880.45V309.601H883.85V298.392L880.61 300.327L880.05 299.429L884.05 296.956H885.13V309.601Z" fill="url(#paint53_linear_175_1868)"/>
<path d="M883.93 319.55C885.356 319.55 886.436 320.155 887.17 321.365C887.916 322.561 888.29 324.303 888.29 326.59C888.29 328.877 887.916 330.625 887.17 331.835C886.436 333.045 885.356 333.65 883.93 333.65C882.517 333.65 881.437 333.045 880.69 331.835C879.943 330.625 879.57 328.877 879.57 326.59C879.57 324.316 879.943 322.574 880.69 321.365C881.437 320.155 882.517 319.55 883.93 319.55ZM880.99 326.59C880.99 328.212 881.137 329.482 881.43 330.399L885.87 321.564C885.403 320.939 884.756 320.627 883.93 320.627C883.01 320.627 882.29 321.119 881.77 322.102C881.25 323.073 880.99 324.569 880.99 326.59ZM883.93 332.553C884.863 332.553 885.59 332.068 886.11 331.097C886.63 330.113 886.89 328.611 886.89 326.59C886.89 324.875 886.723 323.545 886.39 322.601L881.95 331.516C882.43 332.207 883.09 332.553 883.93 332.553Z" fill="url(#paint54_linear_175_1868)"/>
<path d="M883.93 342.342C885.356 342.342 886.436 342.947 887.17 344.157C887.916 345.354 888.29 347.096 888.29 349.383C888.29 351.669 887.916 353.418 887.17 354.628C886.436 355.838 885.356 356.443 883.93 356.443C882.517 356.443 881.437 355.838 880.69 354.628C879.943 353.418 879.57 351.669 879.57 349.383C879.57 347.109 879.943 345.367 880.69 344.157C881.437 342.947 882.517 342.342 883.93 342.342ZM880.99 349.383C880.99 351.005 881.137 352.274 881.43 353.192L885.87 344.357C885.403 343.732 884.756 343.419 883.93 343.419C883.01 343.419 882.29 343.911 881.77 344.895C881.25 345.866 880.99 347.362 880.99 349.383ZM883.93 355.346C884.863 355.346 885.59 354.86 886.11 353.89C886.63 352.906 886.89 351.404 886.89 349.383C886.89 347.667 886.723 346.338 886.39 345.394L881.95 354.309C882.43 355 883.09 355.346 883.93 355.346Z" fill="url(#paint55_linear_175_1868)"/>
<path d="M885.13 377.979H888.07V379.036H880.45V377.979H883.85V366.771L880.61 368.705L880.05 367.808L884.05 365.335H885.13V377.979Z" fill="url(#paint56_linear_175_1868)"/>
<path d="M883.93 387.928C885.356 387.928 886.436 388.533 887.17 389.743C887.916 390.94 888.29 392.681 888.29 394.968C888.29 397.255 887.916 399.003 887.17 400.213C886.436 401.423 885.356 402.028 883.93 402.028C882.517 402.028 881.437 401.423 880.69 400.213C879.943 399.003 879.57 397.255 879.57 394.968C879.57 392.695 879.943 390.953 880.69 389.743C881.437 388.533 882.517 387.928 883.93 387.928ZM880.99 394.968C880.99 396.59 881.137 397.86 881.43 398.777L885.87 389.942C885.403 389.317 884.756 389.005 883.93 389.005C883.01 389.005 882.29 389.497 881.77 390.481C881.25 391.451 880.99 392.947 880.99 394.968ZM883.93 400.931C884.863 400.931 885.59 400.446 886.11 399.475C886.63 398.492 886.89 396.989 886.89 394.968C886.89 393.253 886.723 391.923 886.39 390.979L881.95 399.894C882.43 400.586 883.09 400.931 883.93 400.931Z" fill="url(#paint57_linear_175_1868)"/>
<path d="M885.13 423.565H888.07V424.622H880.45V423.565H883.85V412.356L880.61 414.291L880.05 413.393L884.05 410.92H885.13V423.565Z" fill="url(#paint58_linear_175_1868)"/>
<path d="M885.13 446.357H888.07V447.414H880.45V446.357H883.85V435.149L880.61 437.084L880.05 436.186L884.05 433.713H885.13V446.357Z" fill="url(#paint59_linear_175_1868)"/>
<path d="M921.07 205.586C922.497 205.586 923.577 206.191 924.31 207.4C925.057 208.597 925.43 210.339 925.43 212.626C925.43 214.913 925.057 216.661 924.31 217.871C923.577 219.081 922.497 219.686 921.07 219.686C919.657 219.686 918.577 219.081 917.83 217.871C917.084 216.661 916.71 214.913 916.71 212.626C916.71 210.352 917.084 208.61 917.83 207.4C918.577 206.191 919.657 205.586 921.07 205.586ZM918.13 212.626C918.13 214.248 918.277 215.518 918.57 216.435L923.01 207.6C922.543 206.975 921.897 206.663 921.07 206.663C920.15 206.663 919.43 207.155 918.91 208.138C918.39 209.109 918.13 210.605 918.13 212.626ZM921.07 218.589C922.003 218.589 922.73 218.104 923.25 217.133C923.77 216.149 924.03 214.647 924.03 212.626C924.03 210.911 923.863 209.581 923.53 208.637L919.09 217.552C919.57 218.243 920.23 218.589 921.07 218.589Z" fill="url(#paint60_linear_175_1868)"/>
<path d="M922.27 241.222H925.21V242.279H917.59V241.222H920.99V230.014L917.75 231.948L917.19 231.051L921.19 228.578H922.27V241.222Z" fill="url(#paint61_linear_175_1868)"/>
<path d="M921.07 251.171C922.497 251.171 923.577 251.776 924.31 252.986C925.057 254.183 925.43 255.924 925.43 258.211C925.43 260.498 925.057 262.247 924.31 263.457C923.577 264.666 922.497 265.271 921.07 265.271C919.657 265.271 918.577 264.666 917.83 263.457C917.084 262.247 916.71 260.498 916.71 258.211C916.71 255.938 917.084 254.196 917.83 252.986C918.577 251.776 919.657 251.171 921.07 251.171ZM918.13 258.211C918.13 259.833 918.277 261.103 918.57 262.021L923.01 253.186C922.543 252.561 921.897 252.248 921.07 252.248C920.15 252.248 919.43 252.74 918.91 253.724C918.39 254.695 918.13 256.19 918.13 258.211ZM921.07 264.174C922.003 264.174 922.73 263.689 923.25 262.719C923.77 261.735 924.03 260.232 924.03 258.211C924.03 256.496 923.863 255.167 923.53 254.223L919.09 263.137C919.57 263.829 920.23 264.174 921.07 264.174Z" fill="url(#paint62_linear_175_1868)"/>
<path d="M921.07 273.964C922.497 273.964 923.577 274.569 924.31 275.779C925.057 276.976 925.43 278.717 925.43 281.004C925.43 283.291 925.057 285.039 924.31 286.249C923.577 287.459 922.497 288.064 921.07 288.064C919.657 288.064 918.577 287.459 917.83 286.249C917.084 285.039 916.71 283.291 916.71 281.004C916.71 278.731 917.084 276.989 917.83 275.779C918.577 274.569 919.657 273.964 921.07 273.964ZM918.13 281.004C918.13 282.626 918.277 283.896 918.57 284.813L923.01 275.978C922.543 275.353 921.897 275.041 921.07 275.041C920.15 275.041 919.43 275.533 918.91 276.517C918.39 277.487 918.13 278.983 918.13 281.004ZM921.07 286.967C922.003 286.967 922.73 286.482 923.25 285.511C923.77 284.528 924.03 283.025 924.03 281.004C924.03 279.289 923.863 277.959 923.53 277.015L919.09 285.93C919.57 286.622 920.23 286.967 921.07 286.967Z" fill="url(#paint63_linear_175_1868)"/>
<path d="M922.27 309.601H925.21V310.658H917.59V309.601H920.99V298.392L917.75 300.327L917.19 299.429L921.19 296.956H922.27V309.601Z" fill="url(#paint64_linear_175_1868)"/>
<path d="M921.07 319.55C922.497 319.55 923.577 320.155 924.31 321.365C925.057 322.561 925.43 324.303 925.43 326.59C925.43 328.877 925.057 330.625 924.31 331.835C923.577 333.045 922.497 333.65 921.07 333.65C919.657 333.65 918.577 333.045 917.83 331.835C917.084 330.625 916.71 328.877 916.71 326.59C916.71 324.316 917.084 322.574 917.83 321.365C918.577 320.155 919.657 319.55 921.07 319.55ZM918.13 326.59C918.13 328.212 918.277 329.482 918.57 330.399L923.01 321.564C922.543 320.939 921.897 320.627 921.07 320.627C920.15 320.627 919.43 321.119 918.91 322.102C918.39 323.073 918.13 324.569 918.13 326.59ZM921.07 332.553C922.003 332.553 922.73 332.068 923.25 331.097C923.77 330.113 924.03 328.611 924.03 326.59C924.03 324.875 923.863 323.545 923.53 322.601L919.09 331.516C919.57 332.207 920.23 332.553 921.07 332.553Z" fill="url(#paint65_linear_175_1868)"/>
<path d="M922.27 355.186H925.21V356.243H917.59V355.186H920.99V343.978L917.75 345.912L917.19 345.015L921.19 342.542H922.27V355.186Z" fill="url(#paint66_linear_175_1868)"/>
<path d="M921.07 365.135C922.497 365.135 923.577 365.74 924.31 366.95C925.057 368.147 925.43 369.888 925.43 372.175C925.43 374.462 925.057 376.211 924.31 377.421C923.577 378.63 922.497 379.235 921.07 379.235C919.657 379.235 918.577 378.63 917.83 377.421C917.084 376.211 916.71 374.462 916.71 372.175C916.71 369.902 917.084 368.16 917.83 366.95C918.577 365.74 919.657 365.135 921.07 365.135ZM918.13 372.175C918.13 373.797 918.277 375.067 918.57 375.985L923.01 367.15C922.543 366.525 921.897 366.212 921.07 366.212C920.15 366.212 919.43 366.704 918.91 367.688C918.39 368.659 918.13 370.154 918.13 372.175ZM921.07 378.139C922.003 378.139 922.73 377.653 923.25 376.683C923.77 375.699 924.03 374.196 924.03 372.175C924.03 370.46 923.863 369.131 923.53 368.187L919.09 377.101C919.57 377.793 920.23 378.139 921.07 378.139Z" fill="url(#paint67_linear_175_1868)"/>
<path d="M921.07 387.928C922.497 387.928 923.577 388.533 924.31 389.743C925.057 390.94 925.43 392.681 925.43 394.968C925.43 397.255 925.057 399.003 924.31 400.213C923.577 401.423 922.497 402.028 921.07 402.028C919.657 402.028 918.577 401.423 917.83 400.213C917.084 399.003 916.71 397.255 916.71 394.968C916.71 392.695 917.084 390.953 917.83 389.743C918.577 388.533 919.657 387.928 921.07 387.928ZM918.13 394.968C918.13 396.59 918.277 397.86 918.57 398.777L923.01 389.942C922.543 389.317 921.897 389.005 921.07 389.005C920.15 389.005 919.43 389.497 918.91 390.481C918.39 391.451 918.13 392.947 918.13 394.968ZM921.07 400.931C922.003 400.931 922.73 400.446 923.25 399.475C923.77 398.492 924.03 396.989 924.03 394.968C924.03 393.253 923.863 391.923 923.53 390.979L919.09 399.894C919.57 400.586 920.23 400.931 921.07 400.931Z" fill="url(#paint68_linear_175_1868)"/>
<path d="M922.27 423.565H925.21V424.622H917.59V423.565H920.99V412.356L917.75 414.291L917.19 413.393L921.19 410.92H922.27V423.565Z" fill="url(#paint69_linear_175_1868)"/>
<path d="M921.07 433.514C922.497 433.514 923.577 434.119 924.31 435.329C925.057 436.525 925.43 438.267 925.43 440.554C925.43 442.841 925.057 444.589 924.31 445.799C923.577 447.009 922.497 447.614 921.07 447.614C919.657 447.614 918.577 447.009 917.83 445.799C917.084 444.589 916.71 442.841 916.71 440.554C916.71 438.28 917.084 436.538 917.83 435.329C918.577 434.119 919.657 433.514 921.07 433.514ZM918.13 440.554C918.13 442.176 918.277 443.446 918.57 444.363L923.01 435.528C922.543 434.903 921.897 434.591 921.07 434.591C920.15 434.591 919.43 435.083 918.91 436.066C918.39 437.037 918.13 438.533 918.13 440.554ZM921.07 446.517C922.003 446.517 922.73 446.032 923.25 445.061C923.77 444.077 924.03 442.575 924.03 440.554C924.03 438.839 923.863 437.509 923.53 436.565L919.09 445.48C919.57 446.171 920.23 446.517 921.07 446.517Z" fill="url(#paint70_linear_175_1868)"/>
<path d="M922.27 469.15H925.21V470.207H917.59V469.15H920.99V457.942L917.75 459.876L917.19 458.979L921.19 456.506H922.27V469.15Z" fill="url(#paint71_linear_175_1868)"/>
<path d="M922.27 491.943H925.21V493H917.59V491.943H920.99V480.735L917.75 482.669L917.19 481.772L921.19 479.299H922.27V491.943Z" fill="url(#paint72_linear_175_1868)"/>
<path d="M865.36 228.378C866.786 228.378 867.866 228.983 868.599 230.193C869.346 231.39 869.719 233.132 869.719 235.419C869.719 237.705 869.346 239.454 868.599 240.664C867.866 241.874 866.786 242.479 865.36 242.479C863.946 242.479 862.867 241.874 862.12 240.664C861.373 239.454 861 237.705 861 235.419C861 233.145 861.373 231.403 862.12 230.193C862.867 228.983 863.946 228.378 865.36 228.378ZM862.42 235.419C862.42 237.041 862.567 238.31 862.86 239.228L867.3 230.393C866.833 229.768 866.186 229.455 865.36 229.455C864.44 229.455 863.72 229.947 863.2 230.931C862.68 231.902 862.42 233.398 862.42 235.419ZM865.36 241.382C866.293 241.382 867.02 240.896 867.54 239.926C868.06 238.942 868.319 237.439 868.319 235.419C868.319 233.703 868.153 232.374 867.82 231.43L863.38 240.345C863.86 241.036 864.52 241.382 865.36 241.382Z" fill="url(#paint73_linear_175_1868)"/>
<path d="M865.36 251.171C866.786 251.171 867.866 251.776 868.599 252.986C869.346 254.183 869.719 255.924 869.719 258.211C869.719 260.498 869.346 262.247 868.599 263.457C867.866 264.666 866.786 265.271 865.36 265.271C863.946 265.271 862.867 264.666 862.12 263.457C861.373 262.247 861 260.498 861 258.211C861 255.938 861.373 254.196 862.12 252.986C862.867 251.776 863.946 251.171 865.36 251.171ZM862.42 258.211C862.42 259.833 862.567 261.103 862.86 262.021L867.3 253.186C866.833 252.561 866.186 252.248 865.36 252.248C864.44 252.248 863.72 252.74 863.2 253.724C862.68 254.695 862.42 256.19 862.42 258.211ZM865.36 264.174C866.293 264.174 867.02 263.689 867.54 262.719C868.06 261.735 868.319 260.232 868.319 258.211C868.319 256.496 868.153 255.167 867.82 254.223L863.38 263.137C863.86 263.829 864.52 264.174 865.36 264.174Z" fill="url(#paint74_linear_175_1868)"/>
<path d="M866.56 286.808H869.499V287.865H861.88V286.808H865.28V275.599L862.04 277.534L861.48 276.636L865.48 274.163H866.56V286.808Z" fill="url(#paint75_linear_175_1868)"/>
<path d="M865.36 296.757C866.786 296.757 867.866 297.362 868.599 298.572C869.346 299.768 869.719 301.51 869.719 303.797C869.719 306.084 869.346 307.832 868.599 309.042C867.866 310.252 866.786 310.857 865.36 310.857C863.946 310.857 862.867 310.252 862.12 309.042C861.373 307.832 861 306.084 861 303.797C861 301.523 861.373 299.782 862.12 298.572C862.867 297.362 863.946 296.757 865.36 296.757ZM862.42 303.797C862.42 305.419 862.567 306.689 862.86 307.606L867.3 298.771C866.833 298.146 866.186 297.834 865.36 297.834C864.44 297.834 863.72 298.326 863.2 299.31C862.68 300.28 862.42 301.776 862.42 303.797ZM865.36 309.76C866.293 309.76 867.02 309.275 867.54 308.304C868.06 307.32 868.319 305.818 868.319 303.797C868.319 302.082 868.153 300.752 867.82 299.808L863.38 308.723C863.86 309.414 864.52 309.76 865.36 309.76Z" fill="url(#paint76_linear_175_1868)"/>
<path d="M866.56 332.393H869.499V333.45H861.88V332.393H865.28V321.185L862.04 323.12L861.48 322.222L865.48 319.749H866.56V332.393Z" fill="url(#paint77_linear_175_1868)"/>
<path d="M866.56 355.186H869.499V356.243H861.88V355.186H865.28V343.978L862.04 345.912L861.48 345.015L865.48 342.542H866.56V355.186Z" fill="url(#paint78_linear_175_1868)"/>
<path d="M903.7 195.637H906.64V196.694H899.02V195.637H902.42V184.428L899.18 186.363L898.62 185.465L902.62 182.992H903.7V195.637Z" fill="url(#paint79_linear_175_1868)"/>
<path d="M902.5 205.586C903.927 205.586 905.006 206.191 905.74 207.4C906.486 208.597 906.86 210.339 906.86 212.626C906.86 214.913 906.486 216.661 905.74 217.871C905.006 219.081 903.927 219.686 902.5 219.686C901.087 219.686 900.007 219.081 899.26 217.871C898.514 216.661 898.14 214.913 898.14 212.626C898.14 210.352 898.514 208.61 899.26 207.4C900.007 206.191 901.087 205.586 902.5 205.586ZM899.56 212.626C899.56 214.248 899.707 215.518 900 216.435L904.44 207.6C903.973 206.975 903.327 206.663 902.5 206.663C901.58 206.663 900.86 207.155 900.34 208.138C899.82 209.109 899.56 210.605 899.56 212.626ZM902.5 218.589C903.433 218.589 904.16 218.104 904.68 217.133C905.2 216.149 905.46 214.647 905.46 212.626C905.46 210.911 905.293 209.581 904.96 208.637L900.52 217.552C901 218.243 901.66 218.589 902.5 218.589Z" fill="url(#paint80_linear_175_1868)"/>
<path d="M903.7 241.222H906.64V242.279H899.02V241.222H902.42V230.014L899.18 231.948L898.62 231.051L902.62 228.578H903.7V241.222Z" fill="url(#paint81_linear_175_1868)"/>
<path d="M903.7 264.015H906.64V265.072H899.02V264.015H902.42V252.807L899.18 254.741L898.62 253.844L902.62 251.371H903.7V264.015Z" fill="url(#paint82_linear_175_1868)"/>
<path d="M902.5 273.964C903.927 273.964 905.006 274.569 905.74 275.779C906.486 276.976 906.86 278.717 906.86 281.004C906.86 283.291 906.486 285.039 905.74 286.249C905.006 287.459 903.927 288.064 902.5 288.064C901.087 288.064 900.007 287.459 899.26 286.249C898.514 285.039 898.14 283.291 898.14 281.004C898.14 278.731 898.514 276.989 899.26 275.779C900.007 274.569 901.087 273.964 902.5 273.964ZM899.56 281.004C899.56 282.626 899.707 283.896 900 284.813L904.44 275.978C903.973 275.353 903.327 275.041 902.5 275.041C901.58 275.041 900.86 275.533 900.34 276.517C899.82 277.487 899.56 278.983 899.56 281.004ZM902.5 286.967C903.433 286.967 904.16 286.482 904.68 285.511C905.2 284.528 905.46 283.025 905.46 281.004C905.46 279.289 905.293 277.959 904.96 277.015L900.52 285.93C901 286.622 901.66 286.967 902.5 286.967Z" fill="url(#paint83_linear_175_1868)"/>
<path d="M903.7 309.601H906.64V310.658H899.02V309.601H902.42V298.392L899.18 300.327L898.62 299.429L902.62 296.956H903.7V309.601Z" fill="url(#paint84_linear_175_1868)"/>
<path d="M903.7 332.393H906.64V333.45H899.02V332.393H902.42V321.185L899.18 323.12L898.62 322.222L902.62 319.749H903.7V332.393Z" fill="url(#paint85_linear_175_1868)"/>
<path d="M902.5 342.342C903.927 342.342 905.006 342.947 905.74 344.157C906.486 345.354 906.86 347.096 906.86 349.383C906.86 351.669 906.486 353.418 905.74 354.628C905.006 355.838 903.927 356.443 902.5 356.443C901.087 356.443 900.007 355.838 899.26 354.628C898.514 353.418 898.14 351.669 898.14 349.383C898.14 347.109 898.514 345.367 899.26 344.157C900.007 342.947 901.087 342.342 902.5 342.342ZM899.56 349.383C899.56 351.005 899.707 352.274 900 353.192L904.44 344.357C903.973 343.732 903.327 343.419 902.5 343.419C901.58 343.419 900.86 343.911 900.34 344.895C899.82 345.866 899.56 347.362 899.56 349.383ZM902.5 355.346C903.433 355.346 904.16 354.86 904.68 353.89C905.2 352.906 905.46 351.404 905.46 349.383C905.46 347.667 905.293 346.338 904.96 345.394L900.52 354.309C901 355 901.66 355.346 902.5 355.346Z" fill="url(#paint86_linear_175_1868)"/>
<path d="M903.7 377.979H906.64V379.036H899.02V377.979H902.42V366.771L899.18 368.705L898.62 367.808L902.62 365.335H903.7V377.979Z" fill="url(#paint87_linear_175_1868)"/>
<path d="M902.5 387.928C903.927 387.928 905.006 388.533 905.74 389.743C906.486 390.94 906.86 392.681 906.86 394.968C906.86 397.255 906.486 399.003 905.74 400.213C905.006 401.423 903.927 402.028 902.5 402.028C901.087 402.028 900.007 401.423 899.26 400.213C898.514 399.003 898.14 397.255 898.14 394.968C898.14 392.695 898.514 390.953 899.26 389.743C900.007 388.533 901.087 387.928 902.5 387.928ZM899.56 394.968C899.56 396.59 899.707 397.86 900 398.777L904.44 389.942C903.973 389.317 903.327 389.005 902.5 389.005C901.58 389.005 900.86 389.497 900.34 390.481C899.82 391.451 899.56 392.947 899.56 394.968ZM902.5 400.931C903.433 400.931 904.16 400.446 904.68 399.475C905.2 398.492 905.46 396.989 905.46 394.968C905.46 393.253 905.293 391.923 904.96 390.979L900.52 399.894C901 400.586 901.66 400.931 902.5 400.931Z" fill="url(#paint88_linear_175_1868)"/>
<path d="M939.64 182.793C941.067 182.793 942.147 183.398 942.88 184.608C943.627 185.804 944 187.546 944 189.833C944 192.12 943.627 193.868 942.88 195.078C942.147 196.288 941.067 196.893 939.64 196.893C938.227 196.893 937.147 196.288 936.401 195.078C935.654 193.868 935.281 192.12 935.281 189.833C935.281 187.559 935.654 185.818 936.401 184.608C937.147 183.398 938.227 182.793 939.64 182.793ZM936.701 189.833C936.701 191.455 936.847 192.725 937.14 193.642L941.58 184.807C941.114 184.182 940.467 183.87 939.64 183.87C938.72 183.87 938 184.362 937.48 185.346C936.96 186.316 936.701 187.812 936.701 189.833ZM939.64 195.796C940.574 195.796 941.3 195.311 941.82 194.34C942.34 193.356 942.6 191.854 942.6 189.833C942.6 188.118 942.433 186.788 942.1 185.844L937.66 194.759C938.14 195.45 938.8 195.796 939.64 195.796Z" fill="url(#paint89_linear_175_1868)"/>
<path d="M940.84 218.429H943.78V219.486H936.161V218.429H939.56V207.221L936.321 209.156L935.761 208.258L939.76 205.785H940.84V218.429Z" fill="url(#paint90_linear_175_1868)"/>
<path d="M940.84 241.222H943.78V242.279H936.161V241.222H939.56V230.014L936.321 231.948L935.761 231.051L939.76 228.578H940.84V241.222Z" fill="url(#paint91_linear_175_1868)"/>
<path d="M939.64 251.171C941.067 251.171 942.147 251.776 942.88 252.986C943.627 254.183 944 255.924 944 258.211C944 260.498 943.627 262.247 942.88 263.457C942.147 264.666 941.067 265.271 939.64 265.271C938.227 265.271 937.147 264.666 936.401 263.457C935.654 262.247 935.281 260.498 935.281 258.211C935.281 255.938 935.654 254.196 936.401 252.986C937.147 251.776 938.227 251.171 939.64 251.171ZM936.701 258.211C936.701 259.833 936.847 261.103 937.14 262.021L941.58 253.186C941.114 252.561 940.467 252.248 939.64 252.248C938.72 252.248 938 252.74 937.48 253.724C936.96 254.695 936.701 256.19 936.701 258.211ZM939.64 264.174C940.574 264.174 941.3 263.689 941.82 262.719C942.34 261.735 942.6 260.232 942.6 258.211C942.6 256.496 942.433 255.167 942.1 254.223L937.66 263.137C938.14 263.829 938.8 264.174 939.64 264.174Z" fill="url(#paint92_linear_175_1868)"/>
<path d="M939.64 273.964C941.067 273.964 942.147 274.569 942.88 275.779C943.627 276.976 944 278.717 944 281.004C944 283.291 943.627 285.039 942.88 286.249C942.147 287.459 941.067 288.064 939.64 288.064C938.227 288.064 937.147 287.459 936.401 286.249C935.654 285.039 935.281 283.291 935.281 281.004C935.281 278.731 935.654 276.989 936.401 275.779C937.147 274.569 938.227 273.964 939.64 273.964ZM936.701 281.004C936.701 282.626 936.847 283.896 937.14 284.813L941.58 275.978C941.114 275.353 940.467 275.041 939.64 275.041C938.72 275.041 938 275.533 937.48 276.517C936.96 277.487 936.701 278.983 936.701 281.004ZM939.64 286.967C940.574 286.967 941.3 286.482 941.82 285.511C942.34 284.528 942.6 283.025 942.6 281.004C942.6 279.289 942.433 277.959 942.1 277.015L937.66 285.93C938.14 286.622 938.8 286.967 939.64 286.967Z" fill="url(#paint93_linear_175_1868)"/>
</g>
<defs>
<filter id="filter0_f_175_1868" x="-594.19" y="-526.19" width="2141.38" height="1500.38" filterUnits="userSpaceOnUse" color-interpolation-filters="sRGB">
<feFlood flood-opacity="0" result="BackgroundImageFix"/>
<feBlend mode="normal" in="SourceGraphic" in2="BackgroundImageFix" result="shape"/>
<feGaussianBlur stdDeviation="200.095" result="effect1_foregroundBlur_175_1868"/>
</filter>
<linearGradient id="paint0_linear_175_1868" x1="16.5" y1="460" x2="16.5" y2="771.381" gradientUnits="userSpaceOnUse">
<stop stop-color="#F7DD43"/>
<stop offset="1" stop-color="#F7DD43" stop-opacity="0"/>
</linearGradient>
<linearGradient id="paint1_linear_175_1868" x1="16.5" y1="460" x2="16.5" y2="771.381" gradientUnits="userSpaceOnUse">
<stop stop-color="#F7DD43"/>
<stop offset="1" stop-color="#F7DD43" stop-opacity="0"/>
</linearGradient>
<linearGradient id="paint2_linear_175_1868" x1="16.5" y1="460" x2="16.5" y2="771.381" gradientUnits="userSpaceOnUse">
<stop stop-color="#F7DD43"/>
<stop offset="1" stop-color="#F7DD43" stop-opacity="0"/>
</linearGradient>
<linearGradient id="paint3_linear_175_1868" x1="16.5" y1="460" x2="16.5" y2="771.381" gradientUnits="userSpaceOnUse">
<stop stop-color="#F7DD43"/>
<stop offset="1" stop-color="#F7DD43" stop-opacity="0"/>
</linearGradient>
<linearGradient id="paint4_linear_175_1868" x1="16.5" y1="460" x2="16.5" y2="771.381" gradientUnits="userSpaceOnUse">
<stop stop-color="#F7DD43"/>
<stop offset="1" stop-color="#F7DD43" stop-opacity="0"/>
</linearGradient>
<linearGradient id="paint5_linear_175_1868" x1="16.5" y1="460" x2="16.5" y2="771.381" gradientUnits="userSpaceOnUse">
<stop stop-color="#F7DD43"/>
<stop offset="1" stop-color="#F7DD43" stop-opacity="0"/>
</linearGradient>
<linearGradient id="paint6_linear_175_1868" x1="16.5" y1="460" x2="16.5" y2="771.381" gradientUnits="userSpaceOnUse">
<stop stop-color="#F7DD43"/>
<stop offset="1" stop-color="#F7DD43" stop-opacity="0"/>
</linearGradient>
<linearGradient id="paint7_linear_175_1868" x1="16.5" y1="460" x2="16.5" y2="771.381" gradientUnits="userSpaceOnUse">
<stop stop-color="#F7DD43"/>
<stop offset="1" stop-color="#F7DD43" stop-opacity="0"/>
</linearGradient>
<linearGradient id="paint8_linear_175_1868" x1="16.5" y1="460" x2="16.5" y2="771.381" gradientUnits="userSpaceOnUse">
<stop stop-color="#F7DD43"/>
<stop offset="1" stop-color="#F7DD43" stop-opacity="0"/>
</linearGradient>
<linearGradient id="paint9_linear_175_1868" x1="16.5" y1="460" x2="16.5" y2="771.381" gradientUnits="userSpaceOnUse">
<stop stop-color="#F7DD43"/>
<stop offset="1" stop-color="#F7DD43" stop-opacity="0"/>
</linearGradient>
<linearGradient id="paint10_linear_175_1868" x1="16.5" y1="460" x2="16.5" y2="771.381" gradientUnits="userSpaceOnUse">
<stop stop-color="#F7DD43"/>
<stop offset="1" stop-color="#F7DD43" stop-opacity="0"/>
</linearGradient>
<linearGradient id="paint11_linear_175_1868" x1="16.5" y1="460" x2="16.5" y2="771.381" gradientUnits="userSpaceOnUse">
<stop stop-color="#F7DD43"/>
<stop offset="1" stop-color="#F7DD43" stop-opacity="0"/>
</linearGradient>
<linearGradient id="paint12_linear_175_1868" x1="16.5" y1="460" x2="16.5" y2="771.381" gradientUnits="userSpaceOnUse">
<stop stop-color="#F7DD43"/>
<stop offset="1" stop-color="#F7DD43" stop-opacity="0"/>
</linearGradient>
<linearGradient id="paint13_linear_175_1868" x1="16.5" y1="460" x2="16.5" y2="771.381" gradientUnits="userSpaceOnUse">
<stop stop-color="#F7DD43"/>
<stop offset="1" stop-color="#F7DD43" stop-opacity="0"/>
</linearGradient>
<linearGradient id="paint14_linear_175_1868" x1="16.5" y1="460" x2="16.5" y2="771.381" gradientUnits="userSpaceOnUse">
<stop stop-color="#F7DD43"/>
<stop offset="1" stop-color="#F7DD43" stop-opacity="0"/>
</linearGradient>
<linearGradient id="paint15_linear_175_1868" x1="16.5" y1="460" x2="16.5" y2="771.381" gradientUnits="userSpaceOnUse">
<stop stop-color="#F7DD43"/>
<stop offset="1" stop-color="#F7DD43" stop-opacity="0"/>
</linearGradient>
<linearGradient id="paint16_linear_175_1868" x1="16.5" y1="460" x2="16.5" y2="771.381" gradientUnits="userSpaceOnUse">
<stop stop-color="#F7DD43"/>
<stop offset="1" stop-color="#F7DD43" stop-opacity="0"/>
</linearGradient>
<linearGradient id="paint17_linear_175_1868" x1="16.5" y1="460" x2="16.5" y2="771.381" gradientUnits="userSpaceOnUse">
<stop stop-color="#F7DD43"/>
<stop offset="1" stop-color="#F7DD43" stop-opacity="0"/>
</linearGradient>
<linearGradient id="paint18_linear_175_1868" x1="16.5" y1="460" x2="16.5" y2="771.381" gradientUnits="userSpaceOnUse">
<stop stop-color="#F7DD43"/>
<stop offset="1" stop-color="#F7DD43" stop-opacity="0"/>
</linearGradient>
<linearGradient id="paint19_linear_175_1868" x1="16.5" y1="460" x2="16.5" y2="771.381" gradientUnits="userSpaceOnUse">
<stop stop-color="#F7DD43"/>
<stop offset="1" stop-color="#F7DD43" stop-opacity="0"/>
</linearGradient>
<linearGradient id="paint20_linear_175_1868" x1="16.5" y1="460" x2="16.5" y2="771.381" gradientUnits="userSpaceOnUse">
<stop stop-color="#F7DD43"/>
<stop offset="1" stop-color="#F7DD43" stop-opacity="0"/>
</linearGradient>
<linearGradient id="paint21_linear_175_1868" x1="16.5" y1="460" x2="16.5" y2="771.381" gradientUnits="userSpaceOnUse">
<stop stop-color="#F7DD43"/>
<stop offset="1" stop-color="#F7DD43" stop-opacity="0"/>
</linearGradient>
<linearGradient id="paint22_linear_175_1868" x1="16.5" y1="460" x2="16.5" y2="771.381" gradientUnits="userSpaceOnUse">
<stop stop-color="#F7DD43"/>
<stop offset="1" stop-color="#F7DD43" stop-opacity="0"/>
</linearGradient>
<linearGradient id="paint23_linear_175_1868" x1="16.5" y1="460" x2="16.5" y2="771.381" gradientUnits="userSpaceOnUse">
<stop stop-color="#F7DD43"/>
<stop offset="1" stop-color="#F7DD43" stop-opacity="0"/>
</linearGradient>
<linearGradient id="paint24_linear_175_1868" x1="16.5" y1="460" x2="16.5" y2="771.381" gradientUnits="userSpaceOnUse">
<stop stop-color="#F7DD43"/>
<stop offset="1" stop-color="#F7DD43" stop-opacity="0"/>
</linearGradient>
<linearGradient id="paint25_linear_175_1868" x1="16.5" y1="460" x2="16.5" y2="771.381" gradientUnits="userSpaceOnUse">
<stop stop-color="#F7DD43"/>
<stop offset="1" stop-color="#F7DD43" stop-opacity="0"/>
</linearGradient>
<linearGradient id="paint26_linear_175_1868" x1="16.5" y1="460" x2="16.5" y2="771.381" gradientUnits="userSpaceOnUse">
<stop stop-color="#F7DD43"/>
<stop offset="1" stop-color="#F7DD43" stop-opacity="0"/>
</linearGradient>
<linearGradient id="paint27_linear_175_1868" x1="16.5" y1="460" x2="16.5" y2="771.381" gradientUnits="userSpaceOnUse">
<stop stop-color="#F7DD43"/>
<stop offset="1" stop-color="#F7DD43" stop-opacity="0"/>
</linearGradient>
<linearGradient id="paint28_linear_175_1868" x1="16.5" y1="460" x2="16.5" y2="771.381" gradientUnits="userSpaceOnUse">
<stop stop-color="#F7DD43"/>
<stop offset="1" stop-color="#F7DD43" stop-opacity="0"/>
</linearGradient>
<linearGradient id="paint29_linear_175_1868" x1="16.5" y1="460" x2="16.5" y2="771.381" gradientUnits="userSpaceOnUse">
<stop stop-color="#F7DD43"/>
<stop offset="1" stop-color="#F7DD43" stop-opacity="0"/>
</linearGradient>
<linearGradient id="paint30_linear_175_1868" x1="16.5" y1="460" x2="16.5" y2="771.381" gradientUnits="userSpaceOnUse">
<stop stop-color="#F7DD43"/>
<stop offset="1" stop-color="#F7DD43" stop-opacity="0"/>
</linearGradient>
<linearGradient id="paint31_linear_175_1868" x1="16.5" y1="460" x2="16.5" y2="771.381" gradientUnits="userSpaceOnUse">
<stop stop-color="#F7DD43"/>
<stop offset="1" stop-color="#F7DD43" stop-opacity="0"/>
</linearGradient>
<linearGradient id="paint32_linear_175_1868" x1="16.5" y1="460" x2="16.5" y2="771.381" gradientUnits="userSpaceOnUse">
<stop stop-color="#F7DD43"/>
<stop offset="1" stop-color="#F7DD43" stop-opacity="0"/>
</linearGradient>
<linearGradient id="paint33_linear_175_1868" x1="16.5" y1="460" x2="16.5" y2="771.381" gradientUnits="userSpaceOnUse">
<stop stop-color="#F7DD43"/>
<stop offset="1" stop-color="#F7DD43" stop-opacity="0"/>
</linearGradient>
<linearGradient id="paint34_linear_175_1868" x1="16.5" y1="460" x2="16.5" y2="771.381" gradientUnits="userSpaceOnUse">
<stop stop-color="#F7DD43"/>
<stop offset="1" stop-color="#F7DD43" stop-opacity="0"/>
</linearGradient>
<linearGradient id="paint35_linear_175_1868" x1="16.5" y1="460" x2="16.5" y2="771.381" gradientUnits="userSpaceOnUse">
<stop stop-color="#F7DD43"/>
<stop offset="1" stop-color="#F7DD43" stop-opacity="0"/>
</linearGradient>
<linearGradient id="paint36_linear_175_1868" x1="16.5" y1="460" x2="16.5" y2="771.381" gradientUnits="userSpaceOnUse">
<stop stop-color="#F7DD43"/>
<stop offset="1" stop-color="#F7DD43" stop-opacity="0"/>
</linearGradient>
<linearGradient id="paint37_linear_175_1868" x1="16.5" y1="460" x2="16.5" y2="771.381" gradientUnits="userSpaceOnUse">
<stop stop-color="#F7DD43"/>
<stop offset="1" stop-color="#F7DD43" stop-opacity="0"/>
</linearGradient>
<linearGradient id="paint38_linear_175_1868" x1="16.5" y1="460" x2="16.5" y2="771.381" gradientUnits="userSpaceOnUse">
<stop stop-color="#F7DD43"/>
<stop offset="1" stop-color="#F7DD43" stop-opacity="0"/>
</linearGradient>
<linearGradient id="paint39_linear_175_1868" x1="16.5" y1="460" x2="16.5" y2="771.381" gradientUnits="userSpaceOnUse">
<stop stop-color="#F7DD43"/>
<stop offset="1" stop-color="#F7DD43" stop-opacity="0"/>
</linearGradient>
<linearGradient id="paint40_linear_175_1868" x1="16.5" y1="460" x2="16.5" y2="771.381" gradientUnits="userSpaceOnUse">
<stop stop-color="#F7DD43"/>
<stop offset="1" stop-color="#F7DD43" stop-opacity="0"/>
</linearGradient>
<linearGradient id="paint41_linear_175_1868" x1="16.5" y1="460" x2="16.5" y2="771.381" gradientUnits="userSpaceOnUse">
<stop stop-color="#F7DD43"/>
<stop offset="1" stop-color="#F7DD43" stop-opacity="0"/>
</linearGradient>
<linearGradient id="paint42_linear_175_1868" x1="16.5" y1="460" x2="16.5" y2="771.381" gradientUnits="userSpaceOnUse">
<stop stop-color="#F7DD43"/>
<stop offset="1" stop-color="#F7DD43" stop-opacity="0"/>
</linearGradient>
<linearGradient id="paint43_linear_175_1868" x1="16.5" y1="460" x2="16.5" y2="771.381" gradientUnits="userSpaceOnUse">
<stop stop-color="#F7DD43"/>
<stop offset="1" stop-color="#F7DD43" stop-opacity="0"/>
</linearGradient>
<linearGradient id="paint44_linear_175_1868" x1="16.5" y1="460" x2="16.5" y2="771.381" gradientUnits="userSpaceOnUse">
<stop stop-color="#F7DD43"/>
<stop offset="1" stop-color="#F7DD43" stop-opacity="0"/>
</linearGradient>
<linearGradient id="paint45_linear_175_1868" x1="16.5" y1="460" x2="16.5" y2="771.381" gradientUnits="userSpaceOnUse">
<stop stop-color="#F7DD43"/>
<stop offset="1" stop-color="#F7DD43" stop-opacity="0"/>
</linearGradient>
<linearGradient id="paint46_linear_175_1868" x1="16.5" y1="460" x2="16.5" y2="771.381" gradientUnits="userSpaceOnUse">
<stop stop-color="#F7DD43"/>
<stop offset="1" stop-color="#F7DD43" stop-opacity="0"/>
</linearGradient>
<linearGradient id="paint47_linear_175_1868" x1="902.5" y1="160" x2="902.5" y2="458.818" gradientUnits="userSpaceOnUse">
<stop stop-color="#F7DD43"/>
<stop offset="1" stop-color="#F7DD43" stop-opacity="0"/>
</linearGradient>
<linearGradient id="paint48_linear_175_1868" x1="902.5" y1="160" x2="902.5" y2="458.818" gradientUnits="userSpaceOnUse">
<stop stop-color="#F7DD43"/>
<stop offset="1" stop-color="#F7DD43" stop-opacity="0"/>
</linearGradient>
<linearGradient id="paint49_linear_175_1868" x1="902.5" y1="160" x2="902.5" y2="458.818" gradientUnits="userSpaceOnUse">
<stop stop-color="#F7DD43"/>
<stop offset="1" stop-color="#F7DD43" stop-opacity="0"/>
</linearGradient>
<linearGradient id="paint50_linear_175_1868" x1="902.5" y1="160" x2="902.5" y2="458.818" gradientUnits="userSpaceOnUse">
<stop stop-color="#F7DD43"/>
<stop offset="1" stop-color="#F7DD43" stop-opacity="0"/>
</linearGradient>
<linearGradient id="paint51_linear_175_1868" x1="902.5" y1="160" x2="902.5" y2="458.818" gradientUnits="userSpaceOnUse">
<stop stop-color="#F7DD43"/>
<stop offset="1" stop-color="#F7DD43" stop-opacity="0"/>
</linearGradient>
<linearGradient id="paint52_linear_175_1868" x1="902.5" y1="160" x2="902.5" y2="458.818" gradientUnits="userSpaceOnUse">
<stop stop-color="#F7DD43"/>
<stop offset="1" stop-color="#F7DD43" stop-opacity="0"/>
</linearGradient>
<linearGradient id="paint53_linear_175_1868" x1="902.5" y1="160" x2="902.5" y2="458.818" gradientUnits="userSpaceOnUse">
<stop stop-color="#F7DD43"/>
<stop offset="1" stop-color="#F7DD43" stop-opacity="0"/>
</linearGradient>
<linearGradient id="paint54_linear_175_1868" x1="902.5" y1="160" x2="902.5" y2="458.818" gradientUnits="userSpaceOnUse">
<stop stop-color="#F7DD43"/>
<stop offset="1" stop-color="#F7DD43" stop-opacity="0"/>
</linearGradient>
<linearGradient id="paint55_linear_175_1868" x1="902.5" y1="160" x2="902.5" y2="458.818" gradientUnits="userSpaceOnUse">
<stop stop-color="#F7DD43"/>
<stop offset="1" stop-color="#F7DD43" stop-opacity="0"/>
</linearGradient>
<linearGradient id="paint56_linear_175_1868" x1="902.5" y1="160" x2="902.5" y2="458.818" gradientUnits="userSpaceOnUse">
<stop stop-color="#F7DD43"/>
<stop offset="1" stop-color="#F7DD43" stop-opacity="0"/>
</linearGradient>
<linearGradient id="paint57_linear_175_1868" x1="902.5" y1="160" x2="902.5" y2="458.818" gradientUnits="userSpaceOnUse">
<stop stop-color="#F7DD43"/>
<stop offset="1" stop-color="#F7DD43" stop-opacity="0"/>
</linearGradient>
<linearGradient id="paint58_linear_175_1868" x1="902.5" y1="160" x2="902.5" y2="458.818" gradientUnits="userSpaceOnUse">
<stop stop-color="#F7DD43"/>
<stop offset="1" stop-color="#F7DD43" stop-opacity="0"/>
</linearGradient>
<linearGradient id="paint59_linear_175_1868" x1="902.5" y1="160" x2="902.5" y2="458.818" gradientUnits="userSpaceOnUse">
<stop stop-color="#F7DD43"/>
<stop offset="1" stop-color="#F7DD43" stop-opacity="0"/>
</linearGradient>
<linearGradient id="paint60_linear_175_1868" x1="902.5" y1="160" x2="902.5" y2="458.818" gradientUnits="userSpaceOnUse">
<stop stop-color="#F7DD43"/>
<stop offset="1" stop-color="#F7DD43" stop-opacity="0"/>
</linearGradient>
<linearGradient id="paint61_linear_175_1868" x1="902.5" y1="160" x2="902.5" y2="458.818" gradientUnits="userSpaceOnUse">
<stop stop-color="#F7DD43"/>
<stop offset="1" stop-color="#F7DD43" stop-opacity="0"/>
</linearGradient>
<linearGradient id="paint62_linear_175_1868" x1="902.5" y1="160" x2="902.5" y2="458.818" gradientUnits="userSpaceOnUse">
<stop stop-color="#F7DD43"/>
<stop offset="1" stop-color="#F7DD43" stop-opacity="0"/>
</linearGradient>
<linearGradient id="paint63_linear_175_1868" x1="902.5" y1="160" x2="902.5" y2="458.818" gradientUnits="userSpaceOnUse">
<stop stop-color="#F7DD43"/>
<stop offset="1" stop-color="#F7DD43" stop-opacity="0"/>
</linearGradient>
<linearGradient id="paint64_linear_175_1868" x1="902.5" y1="160" x2="902.5" y2="458.818" gradientUnits="userSpaceOnUse">
<stop stop-color="#F7DD43"/>
<stop offset="1" stop-color="#F7DD43" stop-opacity="0"/>
</linearGradient>
<linearGradient id="paint65_linear_175_1868" x1="902.5" y1="160" x2="902.5" y2="458.818" gradientUnits="userSpaceOnUse">
<stop stop-color="#F7DD43"/>
<stop offset="1" stop-color="#F7DD43" stop-opacity="0"/>
</linearGradient>
<linearGradient id="paint66_linear_175_1868" x1="902.5" y1="160" x2="902.5" y2="458.818" gradientUnits="userSpaceOnUse">
<stop stop-color="#F7DD43"/>
<stop offset="1" stop-color="#F7DD43" stop-opacity="0"/>
</linearGradient>
<linearGradient id="paint67_linear_175_1868" x1="902.5" y1="160" x2="902.5" y2="458.818" gradientUnits="userSpaceOnUse">
<stop stop-color="#F7DD43"/>
<stop offset="1" stop-color="#F7DD43" stop-opacity="0"/>
</linearGradient>
<linearGradient id="paint68_linear_175_1868" x1="902.5" y1="160" x2="902.5" y2="458.818" gradientUnits="userSpaceOnUse">
<stop stop-color="#F7DD43"/>
<stop offset="1" stop-color="#F7DD43" stop-opacity="0"/>
</linearGradient>
<linearGradient id="paint69_linear_175_1868" x1="902.5" y1="160" x2="902.5" y2="458.818" gradientUnits="userSpaceOnUse">
<stop stop-color="#F7DD43"/>
<stop offset="1" stop-color="#F7DD43" stop-opacity="0"/>
</linearGradient>
<linearGradient id="paint70_linear_175_1868" x1="902.5" y1="160" x2="902.5" y2="458.818" gradientUnits="userSpaceOnUse">
<stop stop-color="#F7DD43"/>
<stop offset="1" stop-color="#F7DD43" stop-opacity="0"/>
</linearGradient>
<linearGradient id="paint71_linear_175_1868" x1="902.5" y1="160" x2="902.5" y2="458.818" gradientUnits="userSpaceOnUse">
<stop stop-color="#F7DD43"/>
<stop offset="1" stop-color="#F7DD43" stop-opacity="0"/>
</linearGradient>
<linearGradient id="paint72_linear_175_1868" x1="902.5" y1="160" x2="902.5" y2="458.818" gradientUnits="userSpaceOnUse">
<stop stop-color="#F7DD43"/>
<stop offset="1" stop-color="#F7DD43" stop-opacity="0"/>
</linearGradient>
<linearGradient id="paint73_linear_175_1868" x1="902.5" y1="160" x2="902.5" y2="458.818" gradientUnits="userSpaceOnUse">
<stop stop-color="#F7DD43"/>
<stop offset="1" stop-color="#F7DD43" stop-opacity="0"/>
</linearGradient>
<linearGradient id="paint74_linear_175_1868" x1="902.5" y1="160" x2="902.5" y2="458.818" gradientUnits="userSpaceOnUse">
<stop stop-color="#F7DD43"/>
<stop offset="1" stop-color="#F7DD43" stop-opacity="0"/>
</linearGradient>
<linearGradient id="paint75_linear_175_1868" x1="902.5" y1="160" x2="902.5" y2="458.818" gradientUnits="userSpaceOnUse">
<stop stop-color="#F7DD43"/>
<stop offset="1" stop-color="#F7DD43" stop-opacity="0"/>
</linearGradient>
<linearGradient id="paint76_linear_175_1868" x1="902.5" y1="160" x2="902.5" y2="458.818" gradientUnits="userSpaceOnUse">
<stop stop-color="#F7DD43"/>
<stop offset="1" stop-color="#F7DD43" stop-opacity="0"/>
</linearGradient>
<linearGradient id="paint77_linear_175_1868" x1="902.5" y1="160" x2="902.5" y2="458.818" gradientUnits="userSpaceOnUse">
<stop stop-color="#F7DD43"/>
<stop offset="1" stop-color="#F7DD43" stop-opacity="0"/>
</linearGradient>
<linearGradient id="paint78_linear_175_1868" x1="902.5" y1="160" x2="902.5" y2="458.818" gradientUnits="userSpaceOnUse">
<stop stop-color="#F7DD43"/>
<stop offset="1" stop-color="#F7DD43" stop-opacity="0"/>
</linearGradient>
<linearGradient id="paint79_linear_175_1868" x1="902.5" y1="160" x2="902.5" y2="458.818" gradientUnits="userSpaceOnUse">
<stop stop-color="#F7DD43"/>
<stop offset="1" stop-color="#F7DD43" stop-opacity="0"/>
</linearGradient>
<linearGradient id="paint80_linear_175_1868" x1="902.5" y1="160" x2="902.5" y2="458.818" gradientUnits="userSpaceOnUse">
<stop stop-color="#F7DD43"/>
<stop offset="1" stop-color="#F7DD43" stop-opacity="0"/>
</linearGradient>
<linearGradient id="paint81_linear_175_1868" x1="902.5" y1="160" x2="902.5" y2="458.818" gradientUnits="userSpaceOnUse">
<stop stop-color="#F7DD43"/>
<stop offset="1" stop-color="#F7DD43" stop-opacity="0"/>
</linearGradient>
<linearGradient id="paint82_linear_175_1868" x1="902.5" y1="160" x2="902.5" y2="458.818" gradientUnits="userSpaceOnUse">
<stop stop-color="#F7DD43"/>
<stop offset="1" stop-color="#F7DD43" stop-opacity="0"/>
</linearGradient>
<linearGradient id="paint83_linear_175_1868" x1="902.5" y1="160" x2="902.5" y2="458.818" gradientUnits="userSpaceOnUse">
<stop stop-color="#F7DD43"/>
<stop offset="1" stop-color="#F7DD43" stop-opacity="0"/>
</linearGradient>
<linearGradient id="paint84_linear_175_1868" x1="902.5" y1="160" x2="902.5" y2="458.818" gradientUnits="userSpaceOnUse">
<stop stop-color="#F7DD43"/>
<stop offset="1" stop-color="#F7DD43" stop-opacity="0"/>
</linearGradient>
<linearGradient id="paint85_linear_175_1868" x1="902.5" y1="160" x2="902.5" y2="458.818" gradientUnits="userSpaceOnUse">
<stop stop-color="#F7DD43"/>
<stop offset="1" stop-color="#F7DD43" stop-opacity="0"/>
</linearGradient>
<linearGradient id="paint86_linear_175_1868" x1="902.5" y1="160" x2="902.5" y2="458.818" gradientUnits="userSpaceOnUse">
<stop stop-color="#F7DD43"/>
<stop offset="1" stop-color="#F7DD43" stop-opacity="0"/>
</linearGradient>
<linearGradient id="paint87_linear_175_1868" x1="902.5" y1="160" x2="902.5" y2="458.818" gradientUnits="userSpaceOnUse">
<stop stop-color="#F7DD43"/>
<stop offset="1" stop-color="#F7DD43" stop-opacity="0"/>
</linearGradient>
<linearGradient id="paint88_linear_175_1868" x1="902.5" y1="160" x2="902.5" y2="458.818" gradientUnits="userSpaceOnUse">
<stop stop-color="#F7DD43"/>
<stop offset="1" stop-color="#F7DD43" stop-opacity="0"/>
</linearGradient>
<linearGradient id="paint89_linear_175_1868" x1="902.5" y1="160" x2="902.5" y2="458.818" gradientUnits="userSpaceOnUse">
<stop stop-color="#F7DD43"/>
<stop offset="1" stop-color="#F7DD43" stop-opacity="0"/>
</linearGradient>
<linearGradient id="paint90_linear_175_1868" x1="902.5" y1="160" x2="902.5" y2="458.818" gradientUnits="userSpaceOnUse">
<stop stop-color="#F7DD43"/>
<stop offset="1" stop-color="#F7DD43" stop-opacity="0"/>
</linearGradient>
<linearGradient id="paint91_linear_175_1868" x1="902.5" y1="160" x2="902.5" y2="458.818" gradientUnits="userSpaceOnUse">
<stop stop-color="#F7DD43"/>
<stop offset="1" stop-color="#F7DD43" stop-opacity="0"/>
</linearGradient>
<linearGradient id="paint92_linear_175_1868" x1="902.5" y1="160" x2="902.5" y2="458.818" gradientUnits="userSpaceOnUse">
<stop stop-color="#F7DD43"/>
<stop offset="1" stop-color="#F7DD43" stop-opacity="0"/>
</linearGradient>
<linearGradient id="paint93_linear_175_1868" x1="902.5" y1="160" x2="902.5" y2="458.818" gradientUnits="userSpaceOnUse">
<stop stop-color="#F7DD43"/>
<stop offset="1" stop-color="#F7DD43" stop-opacity="0"/>
</linearGradient>
</defs>
</svg>
